#!OML:ASF X:\für Bonn\!DataBase\2005_08_12_Daniel\c3d\Daniel.ASF
:FULLY-SPECIFIED
:DEGREES
175
root 10.1083 16.9388 1.97539 77.574 -94.4268 -85.1957
lowerback 11.7237 -2.82467 -9.98725
upperback 3.7893 -5.40594 -5.68806
thorax -2.22062 -2.82889 0.334778
lowerneck 8.91453 6.05558 0.764974
upperneck 5.37175 7.83699 2.43315
head 0.134669 3.81062 0.423254
rclavicle 2.70347e-014 1.43125e-014
rhumerus -34.8134 8.40827 -101.735
rradius 44.5623
rwrist 23.7761
rhand -18.3564 19.9412
rfingers 7.12502
rthumb 7.92632 -9.89022
lclavicle 2.70347e-014 1.43125e-014
lhumerus -43.9477 -8.08135 85.2598
lradius 111.282
lwrist 10.7458
lhand -15.3571 -11.8874
lfingers 7.12502
lthumb 10.8203 17.8139
rfemur -25.0768 -10.9356 13.847
rtibia 56.5886
rfoot -19.6978 2.21265
rtoes -9.42148
lfemur -6.45833 -13.2322 -30.8199
ltibia 43.6422
lfoot -32.4618 17.1009
ltoes -13.069
176
root 10.1873 16.933 1.98125 77.538 -94.4327 -85.0824
lowerback 11.5561 -2.74979 -10.0124
upperback 3.80847 -5.28688 -5.72253
thorax -2.11828 -2.77556 0.286434
lowerneck 8.88289 5.98788 0.764126
upperneck 5.38721 7.74619 2.4642
head 0.143583 3.7657 0.436234
rclavicle 6.03311e-014 3.02153e-014
rhumerus -35.0039 8.47242 -101.916
rradius 44.8644
rwrist 23.3408
rhand -18.3344 20.068
rfingers 7.12502
rthumb 7.94758 -9.76259
lclavicle 6.03311e-014 3.02153e-014
lhumerus -44.674 -7.61928 85.4758
lradius 111.101
lwrist 10.6967
lhand -15.2706 -11.5668
lfingers 7.12502
lthumb 10.9038 18.1301
rfemur -24.3835 -11.3656 13.7148
rtibia 57.5584
rfoot -20.1909 2.27972
rtoes -10.0579
lfemur -7.04538 -13.2408 -30.7439
ltibia 43.9667
lfoot -32.2879 17.0847
ltoes -13.0421
177
root 10.2668 16.9284 1.98654 77.5268 -94.4375 -84.9995
lowerback 11.4041 -2.66924 -10.0327
upperback 3.81764 -5.1627 -5.75771
thorax -2.03584 -2.71846 0.236195
lowerneck 8.88559 5.91374 0.776171
upperneck 5.36757 7.64987 2.48135
head 0.137387 3.71795 0.441428
rclavicle 1.2921e-015 1.59028e-014
rhumerus -35.2562 8.59797 -102.106
rradius 45.1964
rwrist 22.8267
rhand -18.3505 20.1678
rfingers 7.12502
rthumb 7.93207 -9.66342
lclavicle 1.2921e-015 1.59028e-014
lhumerus -45.3852 -7.17573 85.6691
lradius 110.968
lwrist 10.6441
lhand -15.1992 -11.2289
lfingers 7.12502
lthumb 10.9726 18.4643
rfemur -23.5831 -11.7502 13.5513
rtibia 58.463
rfoot -20.5661 2.31159
rtoes -10.3063
lfemur -7.61625 -13.2522 -30.6593
ltibia 44.2571
lfoot -32.1104 17.053
ltoes -13.037
178
root 10.3458 16.924 1.99197 77.2975 -94.4327 -84.6999
lowerback 11.2394 -2.57467 -10.0321
upperback 3.82862 -5.01502 -5.78765
thorax -1.94746 -2.6498 0.177111
lowerneck 8.83806 5.83253 0.77545
upperneck 5.39172 7.54089 2.51732
head 0.151467 3.66428 0.456931
rclavicle -1.17581e-013 -7.31528e-014
rhumerus -35.5155 8.79161 -102.282
rradius 45.5062
rwrist 22.2521
rhand -18.406 20.2326
rfingers 7.12502
rthumb 7.87852 -9.60063
lclavicle -1.17581e-013 -7.31528e-014
lhumerus -46.0645 -6.71327 85.8866
lradius 110.872
lwrist 10.5488
lhand -15.1442 -10.9469
lfingers 7.12502
lthumb 11.0257 18.7435
rfemur -22.7054 -12.12 13.3774
rtibia 59.2938
rfoot -20.8538 2.32889
rtoes -10.5113
lfemur -8.16876 -13.2779 -30.5689
ltibia 44.5163
lfoot -31.9118 17.0374
ltoes -12.9641
179
root 10.424 16.9219 1.99653 77.1743 -94.4387 -84.5055
lowerback 11.0809 -2.48153 -10.0337
upperback 3.82951 -4.87204 -5.82941
thorax -1.87345 -2.58266 0.108832
lowerneck 8.7532 5.74787 0.794196
upperneck 5.45418 7.42701 2.55772
head 0.183926 3.60896 0.472613
rclavicle -2.23633e-014 1.11319e-014
rhumerus -35.7739 8.99768 -102.465
rradius 45.7699
rwrist 21.7404
rhand -18.5276 20.2402
rfingers 7.12502
rthumb 7.76117 -9.59732
lclavicle -2.23633e-014 1.11319e-014
lhumerus -46.6921 -6.27524 86.0247
lradius 110.795
lwrist 10.4968
lhand -15.0838 -10.7344
lfingers 7.12502
lthumb 11.0839 18.953
rfemur -21.7892 -12.445 13.1776
rtibia 60.0397
rfoot -21.0982 2.2809
rtoes -10.6784
lfemur -8.70511 -13.2988 -30.4887
ltibia 44.7365
lfoot -31.6786 17.0529
ltoes -12.894
180
root 10.5011 16.9218 2.0002 77.2235 -94.4458 -84.4675
lowerback 10.8809 -2.37894 -10.0351
upperback 3.83875 -4.709 -5.8654
thorax -1.76844 -2.50689 0.0419267
lowerneck 8.6571 5.65863 0.789439
upperneck 5.50384 7.30569 2.61466
head 0.212685 3.54977 0.497111
rclavicle 2.06736e-014 3.65764e-014
rhumerus -36.025 9.21916 -102.608
rradius 46.0302
rwrist 21.2228
rhand -18.5823 20.2529
rfingers 7.12502
rthumb 7.70831 -9.58659
lclavicle 2.06736e-014 3.65764e-014
lhumerus -47.2394 -5.87316 86.1528
lradius 110.745
lwrist 10.4172
lhand -15.0681 -10.5317
lfingers 7.12502
lthumb 11.099 19.1548
rfemur -20.8397 -12.7632 12.9588
rtibia 60.695
rfoot -21.301 2.21587
rtoes -10.6195
lfemur -9.22772 -13.3453 -30.4067
ltibia 44.917
lfoot -31.4341 17.0509
ltoes -12.9156
181
root 10.5773 16.9224 2.00343 77.8131 -94.4589 -84.9703
lowerback 10.6828 -2.2812 -10.0257
upperback 3.83854 -4.5532 -5.91833
thorax -1.67594 -2.43389 -0.0464198
lowerneck 8.55026 5.56006 0.795945
upperneck 5.57689 7.17119 2.68624
head 0.250325 3.48427 0.525198
rclavicle 2.38542e-015 -4.77083e-014
rhumerus -36.2773 9.40573 -102.753
rradius 46.2107
rwrist 20.7862
rhand -18.6416 20.2449
rfingers 7.12502
rthumb 7.65105 -9.59673
lclavicle 2.38542e-015 -4.77083e-014
lhumerus -47.7609 -5.50528 86.2348
lradius 110.685
lwrist 10.3292
lhand -15.0377 -10.4885
lfingers 7.12502
lthumb 11.1284 19.1964
rfemur -19.804 -13.0799 12.7015
rtibia 61.2509
rfoot -21.4938 2.15516
rtoes -10.5361
lfemur -9.72236 -13.4354 -30.3386
ltibia 45.0584
lfoot -31.1968 17.0387
ltoes -12.8113
182
root 10.6505 16.9237 2.00643 78.3742 -94.4645 -85.4497
lowerback 10.4455 -2.18203 -9.98072
upperback 3.85745 -4.38559 -5.98788
thorax -1.54614 -2.35708 -0.174749
lowerneck 8.39169 5.45833 0.816054
upperneck 5.69472 7.03087 2.77025
head 0.310021 3.41686 0.557185
rclavicle -2.18663e-015 4.77083e-015
rhumerus -36.5271 9.60044 -102.898
rradius 46.4
rwrist 20.4335
rhand -18.6674 20.1077
rfingers 7.12502
rthumb 7.62622 -9.73478
lclavicle -2.18663e-015 4.77083e-015
lhumerus -48.2192 -5.20261 86.2424
lradius 110.658
lwrist 10.3054
lhand -15.042 -10.4216
lfingers 7.12502
lthumb 11.1243 19.2636
rfemur -18.6724 -13.3592 12.4355
rtibia 61.6982
rfoot -21.6556 2.06424
rtoes -10.3186
lfemur -10.1857 -13.4762 -30.2582
ltibia 45.1693
lfoot -30.9244 16.9965
ltoes -12.7428
183
root 10.7224 16.9255 2.00869 79.2816 -94.4759 -86.277
lowerback 10.2072 -2.08562 -9.94955
upperback 3.86676 -4.2222 -6.04228
thorax -1.42256 -2.28135 -0.2782
lowerneck 8.25024 5.36001 0.746927
upperneck 5.80296 6.88795 2.88115
head 0.359906 3.34635 0.610658
rclavicle 1.66979e-014 2.8625e-014
rhumerus -36.7793 9.82039 -102.994
rradius 46.5224
rwrist 20.1671
rhand -18.6822 19.9776
rfingers 7.12502
rthumb 7.61186 -9.86539
lclavicle 1.66979e-014 2.8625e-014
lhumerus -48.6552 -4.90138 86.268
lradius 110.63
lwrist 10.2858
lhand -15.0555 -10.3816
lfingers 7.12502
lthumb 11.1112 19.3043
rfemur -17.4663 -13.6437 12.1434
rtibia 62.0407
rfoot -21.7937 1.97193
rtoes -10.0206
lfemur -10.6272 -13.5524 -30.191
ltibia 45.2505
lfoot -30.6529 16.979
ltoes -12.6842
184
root 10.7922 16.9274 2.01098 80.1675 -94.4893 -87.0912
lowerback 9.94805 -1.98691 -9.90043
upperback 3.88703 -4.05097 -6.10933
thorax -1.2781 -2.20279 -0.405883
lowerneck 8.10233 5.26562 0.683818
upperneck 5.89547 6.75095 3.01635
head 0.405569 3.27903 0.670311
rclavicle 3.67752e-014 3.18055e-014
rhumerus -36.9311 9.99438 -103.077
rradius 46.5214
rwrist 19.9837
rhand -18.6255 19.8655
rfingers 7.12502
rthumb 7.66659 -9.97556
lclavicle 3.67752e-014 3.18055e-014
lhumerus -49.0252 -4.61625 86.2808
lradius 110.586
lwrist 10.2318
lhand -15.07 -10.3604
lfingers 7.12502
lthumb 11.0972 19.3262
rfemur -16.1801 -13.8887 11.8403
rtibia 62.2624
rfoot -21.9206 1.87236
rtoes -9.73942
lfemur -11.0406 -13.5896 -30.1164
ltibia 45.3036
lfoot -30.3644 16.8983
ltoes -12.5785
185
root 10.8611 16.9298 2.01284 81.0919 -94.5191 -87.9323
lowerback 9.66261 -1.87671 -9.83423
upperback 3.90058 -3.86104 -6.19697
thorax -1.12918 -2.11476 -0.566078
lowerneck 7.98182 5.15598 0.629873
upperneck 5.98838 6.59367 3.15804
head 0.447704 3.20139 0.730215
rclavicle 3.06128e-014 2.70347e-014
rhumerus -37.0635 10.1453 -103.152
rradius 46.4508
rwrist 19.8836
rhand -18.5623 19.7083
rfingers 7.12502
rthumb 7.72766 -10.1305
lclavicle 3.06128e-014 2.70347e-014
lhumerus -49.3435 -4.4182 86.2709
lradius 110.541
lwrist 10.1966
lhand -15.1177 -10.2998
lfingers 7.12502
lthumb 11.0513 19.3893
rfemur -14.8486 -14.0811 11.5169
rtibia 62.3648
rfoot -22.0128 1.78674
rtoes -9.45424
lfemur -11.4369 -13.6225 -30.0556
ltibia 45.3156
lfoot -30.0786 16.8251
ltoes -12.5284
